<svg xmlns="http://www.w3.org/2000/svg" xmlns:xlink="http://www.w3.org/1999/xlink"><symbol id="wheel" viewBox="0 0 55 55" fill="none"><path d="M42.1547 27.269L35.3713 26.719C34.3621 26.6375 33.6095 25.7537 33.691 24.7445C33.7295 24.2623 33.9578 23.815 34.3254 23.4997L39.4899 19.0694C37.6189 16.4074 34.9184 14.4411 31.8109 13.4778L29.1902 19.7662C28.8005 20.7012 27.7272 21.1421 26.7922 20.7525C26.3457 20.5664 25.991 20.2116 25.8058 19.7662L23.1915 13.4834C20.084 14.4468 17.3835 16.4131 15.5126 19.075L20.6771 23.5053C21.4461 24.1643 21.5351 25.3213 20.876 26.0903C20.5608 26.4579 20.1133 26.6852 19.6312 26.7246L12.8479 27.2746C12.8479 27.3525 12.8359 27.4277 12.8359 27.5056C12.8341 30.6818 13.8708 33.7719 15.7876 36.3056L21.591 32.7654C22.4555 32.2383 23.5838 32.5114 24.1109 33.3759C24.3631 33.7893 24.4409 34.2852 24.3291 34.7555L22.7543 41.3739C25.8297 42.4417 29.1756 42.4417 32.2509 41.3739L30.6761 34.7555C30.4414 33.771 31.0492 32.7819 32.0346 32.5472C32.5049 32.4354 33.0007 32.5133 33.4142 32.7654L39.2149 36.3001C41.1316 33.7664 42.1683 30.6763 42.1665 27.5001C42.1666 27.4221 42.1565 27.3469 42.1547 27.269ZM27.5 30.25C25.981 30.25 24.75 29.0189 24.75 27.5C24.75 25.981 25.981 24.75 27.5 24.75C29.0189 24.75 30.25 25.981 30.25 27.5C30.25 29.0189 29.0189 30.25 27.5 30.25Z" fill="#D12136"/>
<path d="M27.5 0.916626C12.8186 0.916626 0.916626 12.8186 0.916626 27.5C0.916626 42.1813 12.8186 54.0834 27.5 54.0834C42.1813 54.0834 54.0834 42.1813 54.0834 27.5C54.0834 12.8186 42.1813 0.916626 27.5 0.916626ZM27.5 42.1666C19.3994 42.1666 12.8334 35.6006 12.8334 27.5C12.8334 19.3994 19.3994 12.8334 27.5 12.8334C35.6006 12.8334 42.1666 19.3994 42.1666 27.5C42.1666 35.6006 35.6006 42.1666 27.5 42.1666Z" fill="#2B2733"/>
<path d="M44.8673 7.38269C54.462 18.4899 53.2374 35.2723 42.13 44.867C32.1512 53.4873 17.3617 53.4873 7.38281 44.867C16.973 55.9788 33.7553 57.2127 44.8671 47.6216C55.979 38.0306 57.2128 21.2491 47.6218 10.1373C46.7721 9.15279 45.8517 8.2325 44.8673 7.38269Z" fill="#1A1721"/>
<path d="M19.2634 5.11546L21.0071 4.54895L20.1573 1.93332L18.4136 2.49983L19.2634 5.11546Z" fill="#555160"/>
<path d="M34.8445 53.0626L36.5883 52.4961L35.7385 49.8805L33.9948 50.447L34.8445 53.0626Z" fill="#3B3944"/>
<path d="M28.4167 0.916626H26.5834V3.66663H28.4167V0.916626Z" fill="#555160"/>
<path d="M28.4167 51.3334H26.5834V54.0834H28.4167V51.3334Z" fill="#3B3944"/>
<path d="M12.7497 8.75734L14.2327 7.67957L12.616 5.45518L11.1331 6.53295L12.7497 8.75734Z" fill="#555160"/>
<path d="M42.3819 49.5443L43.8649 48.4666L42.2482 46.2422L40.7653 47.3199L42.3819 49.5443Z" fill="#3B3944"/>
<path d="M7.67906 14.2333L8.75684 12.7504L6.53245 11.1337L5.45467 12.6166L7.67906 14.2333Z" fill="#555160"/>
<path d="M48.4681 43.8666L49.5459 42.3837L47.3215 40.767L46.2437 42.2499L48.4681 43.8666Z" fill="#3B3944"/>
<path d="M4.54848 21.0074L5.11499 19.2637L2.49936 18.4139L1.93285 20.1576L4.54848 21.0074Z" fill="#555160"/>
<path d="M52.4999 36.5916L53.0664 34.8479L50.4508 33.9981L49.8843 35.7418L52.4999 36.5916Z" fill="#3B3944"/>
<path d="M3.66663 26.5834H0.916626V28.4167H3.66663V26.5834Z" fill="#555160"/>
<path d="M54.0834 26.5834H51.3334V28.4167H54.0834V26.5834Z" fill="#3B3944"/>
<path d="M2.5046 36.5861L5.11975 35.7361L4.55309 33.9926L1.93794 34.8426L2.5046 36.5861Z" fill="#555160"/>
<path d="M6.53001 43.865L8.75476 42.2485L7.67711 40.7653L5.45236 42.3818L6.53001 43.865Z" fill="#555160"/>
<path d="M42.2492 8.75698L43.8656 6.53223L42.3824 5.45457L40.766 7.67932L42.2492 8.75698Z" fill="#555160"/>
<path d="M35.7394 5.11576L36.5894 2.50061L34.8459 1.93395L33.9959 4.5491L35.7394 5.11576Z" fill="#555160"/>
<path d="M53.0659 20.1575L52.4985 18.4159L50.7019 18.9998C50.8348 19.5994 50.9504 20.2044 51.042 20.8176L53.0659 20.1575Z" fill="#3B3944"/>
<path d="M49.545 12.6161L48.4678 11.1329L47.8427 11.5913C48.1479 12.1257 48.4422 12.6684 48.7107 13.2266L49.545 12.6161Z" fill="#3B3944"/>
<path d="M11.1329 48.4679L12.6161 49.545L13.2229 48.7108C12.6647 48.4423 12.1229 48.1481 11.5877 47.8428L11.1329 48.4679Z" fill="#3B3944"/>
<path d="M18.4131 52.4985L20.1547 53.0659L20.8119 51.0419C20.1987 50.9503 19.5937 50.8347 18.9941 50.7018L18.4131 52.4985Z" fill="#3B3944"/>
<path d="M50.4506 21.0072L51.0418 20.8147C50.9502 20.2015 50.8346 19.5965 50.7017 18.9969L49.8832 19.2628L50.4506 21.0072Z" fill="#555160"/>
<path d="M47.321 14.233L48.7107 13.2246C48.4422 12.6664 48.148 12.1246 47.8427 11.5894L46.243 12.7517L47.321 14.233Z" fill="#555160"/>
<path d="M12.75 46.243L11.5876 47.8427C12.1221 48.148 12.6648 48.4422 13.2229 48.7107L14.2313 47.321L12.75 46.243Z" fill="#555160"/>
<path d="M19.2628 49.8832L18.9969 50.7017C19.5965 50.8346 20.2015 50.9502 20.8147 51.0418L21.0072 50.4506L19.2628 49.8832Z" fill="#555160"/>
<path d="M27.5 8.25C16.8685 8.25 8.25 16.8685 8.25 27.5C8.25 38.1315 16.8685 46.75 27.5 46.75C38.1315 46.75 46.75 38.1315 46.75 27.5C46.75 16.8685 38.1315 8.25 27.5 8.25ZM27.5 42.1666C19.3994 42.1666 12.8334 35.6006 12.8334 27.5C12.8334 19.3994 19.3994 12.8334 27.5 12.8334C35.6006 12.8334 42.1666 19.3994 42.1666 27.5C42.1666 35.6006 35.6006 42.1666 27.5 42.1666Z" fill="#555160"/>
<path d="M40.6313 13.4512C47.8941 21.1989 47.5017 33.3676 39.7541 40.6313C32.3575 47.5649 20.8488 47.5649 13.4521 40.6313C20.6938 48.4 32.8625 48.8272 40.6322 41.5855C48.402 34.3438 48.8282 22.1751 41.5865 14.4054C41.2794 14.0764 40.9603 13.7583 40.6313 13.4512Z" fill="#3B3944"/>
<path d="M35.8417 15.4578C34.607 14.5962 33.2466 13.9297 31.8083 13.4833L31.3032 14.6942C32.8405 14.7748 34.3631 15.0306 35.8417 15.4578Z" fill="#9C1928"/>
<path d="M24.0827 15.6309L23.1918 13.4832C20.0843 14.4466 17.3838 16.4129 15.5128 19.0748L16.5918 20.0007C18.7422 18.0171 21.2978 16.5265 24.0827 15.6309Z" fill="#9C1928"/>
<path d="M27.5 7.33337C16.3625 7.33337 7.33337 16.3625 7.33337 27.5C7.33337 38.6375 16.3625 47.6666 27.5 47.6666C38.6375 47.6666 47.6666 38.6375 47.6666 27.5C47.6539 16.3671 38.6329 7.34616 27.5 7.33337ZM27.5 45.8334C17.3745 45.8334 9.16664 37.6255 9.16664 27.5C9.16664 17.3745 17.3745 9.16664 27.5 9.16664C37.6255 9.16664 45.8334 17.3745 45.8334 27.5C45.8214 37.62 37.62 45.8214 27.5 45.8334Z" fill="black"/>
<path d="M27.5 11.9166C18.8935 11.9166 11.9166 18.8934 11.9166 27.5C11.9166 36.1066 18.8935 43.0834 27.5 43.0834C36.1065 43.0834 43.0834 36.1065 43.0834 27.5C43.0741 18.8971 36.1029 11.9259 27.5 11.9166ZM41.1877 26.2716L35.4466 25.8078C34.9425 25.7656 34.5676 25.3219 34.6097 24.8178C34.6299 24.5786 34.7426 24.3567 34.925 24.2L39.2874 20.4572C40.3535 22.2264 41.0025 24.2147 41.1877 26.2716ZM30.5608 14.1057L28.3461 19.4223C28.1508 19.8898 27.6145 20.1108 27.147 19.9155C26.9242 19.8229 26.7464 19.6451 26.6538 19.4223L24.4391 14.1057C26.4522 13.6317 28.5478 13.6317 30.5608 14.1057ZM15.7108 20.4554L20.075 24.2C20.459 24.529 20.504 25.1085 20.174 25.4925C20.0163 25.6759 19.7927 25.7904 19.5525 25.8097L13.8114 26.2736C13.9966 24.2147 14.6465 22.2256 15.7136 20.4555H15.7108V20.4554ZM17.1563 36.5328L22.0623 33.5399C22.494 33.2759 23.0587 33.4125 23.3227 33.8442C23.4492 34.0505 23.4887 34.2989 23.4317 34.5345L22.1008 40.1427C20.2042 39.3241 18.5157 38.0903 17.159 36.5329H17.1563V36.5328ZM23.8397 40.7412L25.2147 34.9589C25.5658 33.4812 24.6528 31.999 23.1751 31.647C22.4692 31.4792 21.7259 31.5966 21.1071 31.9752L16.0343 35.0717C14.6648 33.0001 13.8857 30.5947 13.7811 28.1133L19.701 27.6348C21.2144 27.5111 22.341 26.1828 22.2172 24.6694C22.1576 23.948 21.8166 23.2789 21.2666 22.8067L16.7566 18.9384C18.3067 16.9996 20.3509 15.5146 22.6737 14.6401L24.9581 20.1245C25.542 21.527 27.1516 22.1898 28.5541 21.6059C29.2242 21.3272 29.7568 20.7946 30.0355 20.1245L32.3208 14.6401C34.6436 15.5146 36.6878 16.9996 38.2379 18.9384L33.7334 22.8067C32.5812 23.7958 32.4482 25.532 33.4373 26.6842C33.9094 27.2342 34.5795 27.5762 35.3018 27.6348L41.2216 28.1133C41.1171 30.5947 40.338 33 38.9685 35.0717L33.8892 31.9743C32.5931 31.1833 30.9 31.593 30.109 32.8891C29.7313 33.5089 29.613 34.2522 29.7817 34.9589L31.1567 40.7412C28.7652 41.4196 26.2333 41.4196 23.8417 40.7412H23.8397ZM32.8964 40.1427L31.5627 34.5345C31.4454 34.0423 31.7497 33.5482 32.2419 33.4309C32.4775 33.3749 32.725 33.4143 32.9322 33.5399L37.8382 36.5328C36.4824 38.0902 34.7948 39.324 32.8991 40.1426H32.8964V40.1427Z" fill="black"/>
<path d="M31.1666 27.5C31.1666 25.4751 29.5249 23.8334 27.5 23.8334C25.4751 23.8334 23.8334 25.4751 23.8334 27.5C23.8334 29.5249 25.4751 31.1666 27.5 31.1666C29.5249 31.1666 31.1666 29.5249 31.1666 27.5ZM27.5 29.3334C26.4871 29.3334 25.6666 28.513 25.6666 27.5C25.6666 26.4871 26.487 25.6666 27.5 25.6666C28.5129 25.6666 29.3334 26.487 29.3334 27.5C29.3334 28.5129 28.5129 29.3334 27.5 29.3334Z" fill="black"/>
<path d="M27.5 55C12.3117 55 0 42.6883 0 27.5C0 12.3117 12.3117 0 27.5 0C42.6883 0 55 12.3117 55 27.5C54.9826 42.681 42.681 54.9826 27.5 55ZM27.5 1.83337C13.3247 1.83337 1.83337 13.3247 1.83337 27.5C1.83337 41.6753 13.3247 53.1666 27.5 53.1666C41.6753 53.1666 53.1666 41.6754 53.1666 27.5C53.1502 13.3311 41.6689 1.8498 27.5 1.83337Z" fill="black"/></symbol><symbol id="engine" viewBox="0 0 53 40" fill="none"><g opacity="0.5">
<rect x="16.746" y="10.75" width="10.9495" height="19.9131" rx="1.25" stroke="#48494D" stroke-width="1.5"/>
<mask id="path-2-inside-1" fill="white">
<rect x="18.0969" y="13.0968" width="8.2583" height="7.22601" rx="1"/>
</mask>
<rect x="18.0969" y="13.0968" width="8.2583" height="7.22601" rx="1" stroke="#48494D" stroke-width="3" mask="url(#path-2-inside-1)"/>
<path d="M27.9474 20.834V20.834C29.1306 20.834 30.0897 21.7931 30.0897 22.9763V25.6395C30.0897 26.985 30.6253 29.1298 32.589 28.9072C34.5527 28.6846 34.9098 26.6819 34.9098 25.255C34.9098 23.8282 34.1957 20.6418 34.3742 17.9507C34.5527 15.2597 36.1594 12.953 37.4091 11.9919" stroke="#48494D" stroke-width="1.5" stroke-linecap="round" stroke-linejoin="round"/>
<rect x="15.498" y="30.506" width="13.4454" height="0.995959" rx="0.497979" fill="#48494D" stroke="#48494D" stroke-width="0.995959"/>
<path d="M35.4181 15.4778V15.4778C36.3327 15.7015 36.9439 16.5632 36.8527 17.5003L36.7677 18.3736C36.6801 19.2733 35.9237 19.9596 35.0197 19.9596V19.9596" stroke="#48494D" stroke-width="1.5"/>
</g></symbol><symbol id="transmission" viewBox="0 0 40 40" fill="none" ><g opacity="0.5">
<path d="M11.1944 20H28.8057" stroke="#48494D" stroke-width="1.5"/>
<path d="M11.1944 20H28.8057" stroke="#48494D" stroke-width="1.5" stroke-miterlimit="10" stroke-linecap="round" stroke-linejoin="round"/>
<path d="M20 14.5297V25.4707" stroke="#48494D" stroke-width="1.5"/>
<path d="M20 14.5297V25.4707" stroke="#48494D" stroke-width="1.5" stroke-miterlimit="10" stroke-linecap="round" stroke-linejoin="round"/>
<path d="M28.8059 14.5297V20.0003" stroke="#48494D" stroke-width="1.5"/>
<path d="M28.8059 14.5297V20.0003" stroke="#48494D" stroke-width="1.5" stroke-miterlimit="10" stroke-linecap="round" stroke-linejoin="round"/>
<path d="M11.1944 14.5297V25.4713" stroke="#48494D" stroke-width="1.5"/>
<path d="M11.1944 14.5297V25.4713" stroke="#48494D" stroke-width="1.5" stroke-miterlimit="10" stroke-linecap="round" stroke-linejoin="round"/>
<path d="M11.1943 14.5295C12.6779 14.5295 13.8805 13.3269 13.8805 11.8433C13.8805 10.3598 12.6779 9.1571 11.1943 9.1571C9.71077 9.1571 8.50812 10.3598 8.50812 11.8433C8.50812 13.3269 9.71077 14.5295 11.1943 14.5295Z" stroke="#48494D" stroke-width="1.5" stroke-miterlimit="10" stroke-linecap="round" stroke-linejoin="round"/>
<path d="M19.9999 14.5295C21.4835 14.5295 22.6861 13.3269 22.6861 11.8433C22.6861 10.3598 21.4835 9.1571 19.9999 9.1571C18.5164 9.1571 17.3137 10.3598 17.3137 11.8433C17.3137 13.3269 18.5164 14.5295 19.9999 14.5295Z" stroke="#48494D" stroke-width="1.5" stroke-miterlimit="10" stroke-linecap="round" stroke-linejoin="round"/>
<path d="M28.8061 14.5295C30.2896 14.5295 31.4923 13.3269 31.4923 11.8433C31.4923 10.3598 30.2896 9.1571 28.8061 9.1571C27.3225 9.1571 26.1199 10.3598 26.1199 11.8433C26.1199 13.3269 27.3225 14.5295 28.8061 14.5295Z" stroke="#48494D" stroke-width="1.5" stroke-miterlimit="10" stroke-linecap="round" stroke-linejoin="round"/>
<path d="M11.1943 30.8429C12.6779 30.8429 13.8805 29.6402 13.8805 28.1567C13.8805 26.6731 12.6779 25.4705 11.1943 25.4705C9.71077 25.4705 8.50812 26.6731 8.50812 28.1567C8.50812 29.6402 9.71077 30.8429 11.1943 30.8429Z" stroke="#48494D" stroke-width="1.5" stroke-miterlimit="10" stroke-linecap="round" stroke-linejoin="round"/>
<path d="M19.9999 30.8429C21.4835 30.8429 22.6861 29.6402 22.6861 28.1567C22.6861 26.6731 21.4835 25.4705 19.9999 25.4705C18.5164 25.4705 17.3137 26.6731 17.3137 28.1567C17.3137 29.6402 18.5164 30.8429 19.9999 30.8429Z" stroke="#48494D" stroke-width="1.5" stroke-miterlimit="10" stroke-linecap="round" stroke-linejoin="round"/>
</g></symbol><symbol id="capacity" viewBox="0 0 40 40" fill="none"><g opacity="0.5">
<path d="M28.7616 10.4801C29.4368 10.4801 30.1246 10.5293 30.789 10.5775C31.4347 10.6237 32.1016 10.6721 32.738 10.6721C32.9744 10.6721 33.1911 10.6658 33.4009 10.6524C33.4045 10.6521 33.4081 10.6521 33.4114 10.6521C33.4808 10.6521 33.5452 10.6884 33.5794 10.7494C33.6154 10.8133 33.6125 10.8921 33.5708 10.9527C33.1558 11.5608 33.1986 12.9522 33.2443 14.4254C33.3052 16.3918 33.3678 18.4253 32.4291 19.3969C32.0761 19.7623 31.6024 19.9472 31.0215 19.9472C30.4611 19.9472 30.1271 19.0448 29.7409 18.0004C29.3925 17.0599 28.9596 15.8893 28.4492 15.8893C26.7281 15.8893 26.1137 18.9205 27.5292 21.4219L30.6126 26.7019C30.934 27.252 30.7494 27.9625 30.2013 28.285C30.0245 28.3891 29.8233 28.4443 29.6196 28.4443C29.2784 28.4443 28.9578 28.2948 28.7378 28.0347L24.195 23.1678C22.5751 22.8392 21.0465 22.6723 19.6504 22.6723C18.0763 22.6723 16.326 22.8825 14.446 23.2972L10.0101 28.0346C9.79 28.295 9.47004 28.4442 9.12953 28.4442C8.85942 28.4442 8.59668 28.3478 8.38918 28.1733C7.95639 27.8089 7.84947 27.1902 8.13562 26.7018L11.0461 21.7177C11.2606 18.9209 11.0103 18.0114 10.7616 17.7418C10.6871 17.6612 10.6203 17.6517 10.5764 17.6517C10.3203 17.6517 10.1019 17.7485 9.90822 17.9468C9.20837 18.666 9.05612 20.5431 9.07679 21.5584C9.07787 21.5674 9.07859 21.5772 9.07859 21.5869C9.07859 21.6931 8.99311 21.7795 8.88694 21.7795H8.8855C8.88118 21.7795 8.87704 21.7791 8.87272 21.7791C8.67801 21.7654 8.49156 21.7578 8.3109 21.7502C7.54283 21.7184 6.93619 21.6931 6.61189 21.2792C6.38821 20.9935 6.34178 20.5677 6.46703 19.9396C6.47224 19.9089 6.4789 19.8673 6.48628 19.8208C6.55881 19.364 6.70925 18.4146 7.23006 17.5724C7.88458 16.5139 8.8963 15.9758 10.2334 15.9758C10.341 15.9758 10.4504 15.9792 10.5618 15.9862C10.9977 16.0131 11.3515 16.2047 11.6633 16.3734C11.956 16.532 12.2327 16.6822 12.5401 16.6822C12.6842 16.6822 12.8295 16.6501 12.9831 16.5845C14.0515 16.1304 15.2619 15.9097 16.6823 15.9097C17.2641 15.9097 17.89 15.9462 18.5962 16.0213C18.8033 16.0431 19.0038 16.0545 19.1922 16.0545H19.1929C21.0015 16.0541 21.7325 15.0278 22.5798 13.8388C23.2316 12.9238 23.9701 11.8875 25.3069 11.1969C26.2548 10.7076 27.3523 10.4794 28.7617 10.4794L28.7616 10.4801ZM28.7617 9C27.1093 9 25.7974 9.27992 24.6324 9.88092C22.9775 10.736 22.0921 11.9792 21.3806 12.9781C20.5355 14.1642 20.1925 14.5743 19.1926 14.5747C19.0559 14.5747 18.9078 14.5662 18.7517 14.5496C17.9925 14.469 17.3159 14.4299 16.6824 14.4299C15.1182 14.4299 13.7622 14.6709 12.5424 15.1661C12.4856 15.1372 12.4197 15.1015 12.3646 15.0719C11.984 14.8658 11.4123 14.5566 10.6536 14.5093C10.5145 14.5005 10.373 14.4959 10.2334 14.4959C8.37765 14.4959 6.90597 15.29 5.97732 16.7924C5.30069 17.8868 5.11137 19.0781 5.03058 19.587L5.02104 19.6466L5.01618 19.677C4.93286 20.0967 4.72177 21.2593 5.45296 22.193C6.19744 23.1432 7.33587 23.1902 8.25077 23.2278C8.31627 23.2307 8.38268 23.2336 8.45016 23.2365L6.86383 25.9533C6.21256 27.0654 6.45551 28.4762 7.44202 29.3065C7.91421 29.7038 8.51348 29.9231 9.12967 29.9231C9.88856 29.9231 10.6057 29.5962 11.1047 29.0252L15.2042 24.6472C16.8123 24.3178 18.3059 24.151 19.6508 24.151C20.8178 24.151 22.0926 24.2777 23.4458 24.5288L27.6425 29.0236C28.1417 29.5954 28.8594 29.9229 29.6199 29.9229C30.0856 29.9229 30.5449 29.7976 30.9473 29.5603C32.1965 28.8257 32.6173 27.2076 31.8848 25.9532L28.8063 20.6827C28.2729 19.7364 28.1718 18.8205 28.2351 18.1841C28.2812 18.3058 28.3229 18.4195 28.3586 18.5147C28.8632 19.8794 29.4351 21.4261 31.0212 21.4261C32.002 21.4261 32.855 21.0804 33.487 20.4263C34.8601 19.005 34.7874 16.6538 34.7176 14.3799C34.6917 13.5404 34.6481 12.1446 34.8061 11.7595C35.1441 11.244 35.1682 10.5645 34.863 10.022C34.5693 9.49795 34.0129 9.172 33.4111 9.172C33.3798 9.172 33.3434 9.17345 33.3092 9.17543C33.1303 9.18645 32.9435 9.19205 32.7377 9.19205C32.16 9.19205 31.5258 9.14654 30.9122 9.10247C30.241 9.05402 29.4984 9.00002 28.7631 9.00002" fill="#48494D"/>
</g></symbol><symbol id="volume" viewBox="0 0 40 40" fill="none"><g opacity="0.5">
<path d="M34.0866 17.312C33.915 17.312 33.7431 17.2462 33.6123 17.1152L26.8109 10.3142C26.5492 10.0522 26.5492 9.62751 26.8109 9.36548C27.073 9.1036 27.4978 9.1036 27.7598 9.36548L34.5602 16.1661C34.8222 16.428 34.8222 16.8527 34.5602 17.1147C34.4302 17.2457 34.2602 17.3117 34.0869 17.3117" fill="#48494D"/>
<path d="M32.4738 18.9248C32.3022 18.9248 32.1304 18.8592 31.9995 18.7282L25.1988 11.9275C24.9368 11.6654 24.9368 11.2408 25.1988 10.9788C25.4609 10.7167 25.8857 10.7167 26.1477 10.9788L32.9481 17.7794C33.2101 18.0415 33.2101 18.4661 32.9481 18.7282C32.8171 18.8592 32.6454 18.9248 32.4737 18.9248" fill="#48494D"/>
<path d="M30.9287 20.4701C30.7568 20.4701 30.5852 20.4046 30.4541 20.2734L23.6537 13.4728C23.3917 13.2107 23.3917 12.7861 23.6537 12.524C23.9158 12.2622 24.3403 12.2622 24.6023 12.524L31.403 19.3247C31.665 19.5868 31.665 20.0115 31.403 20.2733C31.2716 20.4046 31.1003 20.4699 30.9286 20.4699" fill="#48494D"/>
<path d="M22.5466 18.2564C22.3748 18.2564 22.2032 18.1906 22.0723 18.0596C21.8103 17.7977 21.8103 17.3731 22.0723 17.111L24.9499 14.2333C25.212 13.9714 25.6365 13.9714 25.8985 14.2333C26.1605 14.4953 26.1605 14.92 25.8985 15.182L23.0205 18.0597C22.8898 18.1907 22.7178 18.2563 22.5465 18.2563" fill="#48494D"/>
<path d="M26.3414 22.0514C26.1695 22.0514 25.998 21.986 25.8671 21.8548C25.6051 21.5927 25.6051 21.1682 25.8671 20.9062L28.7447 18.0284C29.0067 17.7666 29.4315 17.7666 29.6936 18.0284C29.9556 18.2905 29.9556 18.7151 29.6936 18.9772L26.8157 21.8548C26.685 21.9861 26.513 22.0514 26.3413 22.0514" fill="#48494D"/>
<path d="M32.1684 13.6347C31.6505 14.1528 30.8106 14.1528 30.2927 13.6347C29.7745 13.1166 29.7745 12.277 30.2927 11.759C30.8106 11.241 31.6504 11.241 32.1684 11.759C32.6864 12.277 32.6864 13.1167 32.1684 13.6347Z" fill="#48494D"/>
<path d="M5.91291 17.3044C5.7412 17.3044 5.56948 17.2386 5.43848 17.1076C5.1766 16.8457 5.1766 16.4211 5.43848 16.1591L12.2391 9.3584C12.5013 9.09635 12.9261 9.09635 13.188 9.3584C13.4501 9.62028 13.4501 10.0449 13.188 10.307L6.38704 17.1076C6.25604 17.2383 6.08438 17.3043 5.91271 17.3043" fill="#48494D"/>
<path d="M7.52587 18.9171C7.35416 18.9171 7.18261 18.8513 7.05157 18.7203C6.78953 18.4584 6.78953 18.0336 7.05157 17.7717L13.8522 10.9711C14.1143 10.7092 14.5389 10.7092 14.801 10.9711C15.0629 11.2331 15.0629 11.6578 14.801 11.9198L8.00031 18.7205C7.86931 18.8515 7.69764 18.9171 7.52597 18.9171" fill="#48494D"/>
<path d="M9.07125 20.4627C8.8997 20.4627 8.72799 20.397 8.59695 20.2661C8.33491 20.0041 8.33491 19.5794 8.59695 19.3174L15.3976 12.5167C15.6597 12.2547 16.0843 12.2547 16.3464 12.5167C16.6084 12.7788 16.6084 13.2034 16.3464 13.4653L9.54602 20.266C9.41502 20.3966 9.24302 20.4626 9.07135 20.4626" fill="#48494D"/>
<path d="M13.6582 22.0441C13.4864 22.0441 13.3147 21.9783 13.1837 21.8475L10.3058 18.9697C10.0437 18.7078 10.0437 18.283 10.3058 18.0211C10.5682 17.7591 10.9928 17.7591 11.2549 18.0211L14.1325 20.8989C14.3945 21.1606 14.3945 21.5857 14.1325 21.8475C14.0015 21.9785 13.8298 22.0441 13.6581 22.0441" fill="#48494D"/>
<path d="M17.4535 18.2488C17.2818 18.2488 17.1101 18.1832 16.9791 18.0522L14.1012 15.1744C13.8391 14.9125 13.8391 14.4877 14.1012 14.2258C14.3635 13.9638 14.7882 13.9638 15.0502 14.2258L17.9278 17.1034C18.1899 17.3655 18.1899 17.7901 17.9278 18.0522C17.7968 18.1832 17.6248 18.2488 17.4535 18.2488" fill="#48494D"/>
<path d="M9.70761 11.7514C10.2255 12.2693 10.2255 13.109 9.70761 13.6271C9.18954 14.145 8.34987 14.145 7.83194 13.6271C7.31387 13.109 7.31387 12.2693 7.83194 11.7514C8.34961 11.2334 9.18927 11.2334 9.70761 11.7514Z" fill="#48494D"/>
<path d="M20.004 31.418C18.0839 31.418 16.1637 30.6872 14.702 29.2253C11.7787 26.3018 11.7787 21.545 14.702 18.6213C17.6257 15.6973 22.3827 15.6973 25.306 18.6213C28.2298 21.5448 28.2298 26.3017 25.306 29.2253C23.844 30.6873 21.924 31.418 20.004 31.418V31.418ZM20.004 17.77C18.4272 17.77 16.8508 18.3699 15.651 19.5703C13.2506 21.9705 13.2506 25.8763 15.651 28.2766C18.0512 30.677 21.9567 30.677 24.3573 28.2766C26.7577 25.8766 26.7577 21.9706 24.3573 19.5703C23.1573 18.37 21.58 17.77 20.004 17.77V17.77ZM24.8313 28.751H24.8326H24.8313H24.8313Z" fill="#48494D"/>
<path d="M12.0902 26.5423H10.8205C9.89441 26.5423 9.14081 25.7891 9.14081 24.8626V22.9675C9.14081 22.0414 9.89437 21.2881 10.8205 21.2881H12.0902C13.0165 21.2881 13.7697 22.0414 13.7697 22.9675V24.8626C13.7697 25.789 13.0164 26.5423 12.0901 26.5423L12.0902 26.5423ZM10.8204 22.6296C10.6373 22.6296 10.4827 22.7842 10.4827 22.9675V24.8627C10.4827 25.046 10.6373 25.2003 10.8204 25.2003H12.0901C12.2734 25.2003 12.428 25.046 12.428 24.8627V22.9675C12.428 22.7843 12.2734 22.6296 12.0901 22.6296H10.8204H10.8204Z" fill="#48494D"/>
</g></symbol><symbol id="arrow" viewBox="0 0 20 13" fill="none"><path d="M18.9873 6.17188L13.0747 0.368597M18.9873 6.17188L13.3001 11.9692M18.9873 6.17188L0.0150977 6.35128"/></symbol><symbol id="star" viewBox="0 0 17 16"><path d="M8.74375 0L10.6227 5.87336L16.7029 5.87336L11.7839 9.50329L13.6628 15.3766L8.74375 11.7467L3.82472 15.3766L5.70362 9.50329L0.784596 5.87336L6.86485 5.87336L8.74375 0Z"/></symbol><symbol id="close" viewBox="0 0 15 16" fill="none"><path d="M13.6399 15.0096L7.50482 8.86495L1.36977 15.0096L0 13.6399L6.14469 7.50482L0 1.36978L1.36977 0L7.50482 6.14469L13.6399 0.00964652L15 1.36978L8.86495 7.50482L15 13.6399L13.6399 15.0096Z" fill="#9F9E9E"/></symbol><symbol id="location" viewBox="0 0 34 42" fill="none" ><path d="M28.3137 29.2842L17 41L5.68632 29.2842C3.44871 26.9671 1.92478 24.0148 1.30743 20.8008C0.690088 17.5869 1.00695 14.2555 2.21795 11.228C3.42896 8.2005 5.47983 5.61286 8.111 3.7923C10.7422 1.97173 13.8355 1 17 1C20.1645 1 23.258 1.97173 25.8891 3.7923C28.5203 5.61286 30.5711 8.2005 31.7821 11.228C32.9931 14.2555 33.3099 17.5869 32.6926 20.8008C32.0752 24.0148 30.5513 26.9671 28.3137 29.2842ZM17 21.2503C17.943 21.2503 18.8474 20.8624 19.5142 20.1719C20.181 19.4814 20.5555 18.5449 20.5555 17.5684C20.5555 16.5919 20.181 15.6554 19.5142 14.9649C18.8474 14.2744 17.943 13.8865 17 13.8865C16.057 13.8865 15.1526 14.2744 14.4859 14.9649C13.8191 15.6554 13.4445 16.5919 13.4445 17.5684C13.4445 18.5449 13.8191 19.4814 14.4859 20.1719C15.1526 20.8624 16.057 21.2503 17 21.2503Z" fill="#D12136" stroke="#F6F7FF" stroke-width="0.5"/></symbol><symbol></symbol></svg>
